<?xml version="1.0" standalone="no"?>
<!DOCTYPE svg PUBLIC "-//W3C//DTD SVG 20010904//EN"
 "http://www.w3.org/TR/2001/REC-SVG-20010904/DTD/svg10.dtd">
<svg version="1.0" xmlns="http://www.w3.org/2000/svg"
 width="602.000000pt" height="892.000000pt" viewBox="0 0 602.000000 892.000000"
 preserveAspectRatio="xMidYMid meet">

<style>
  @media (prefers-color-scheme: dark) {
    g { fill: #ffffff !important; }
  }
</style>

<g transform="translate(0.000000,892.000000) scale(0.100000,-0.100000)"
fill="#000000" stroke="none">
<path d="M5775 8143 c-33 -20 -127 -78 -210 -128 -82 -51 -278 -170 -435 -265
-466 -283 -542 -332 -533 -340 4 -5 108 -58 231 -120 123 -61 225 -117 228
-124 3 -8 -31 -85 -77 -173 -172 -333 -251 -487 -389 -758 -132 -260 -204
-400 -475 -930 -56 -110 -169 -330 -250 -490 -81 -159 -160 -312 -175 -340
-15 -27 -103 -198 -195 -380 -92 -181 -212 -415 -265 -520 -54 -104 -146 -284
-205 -400 -59 -115 -116 -222 -127 -238 -52 -74 -90 -50 -107 69 -7 53 -11
342 -12 879 0 440 -5 856 -10 925 -36 464 -242 792 -604 961 -72 33 -113 47
-250 82 -23 6 -265 13 -570 16 l-530 6 -3 33 c-6 57 -72 10 788 549 162 102
356 223 430 270 74 47 236 148 360 225 227 141 286 179 394 250 80 53 151 71
246 66 86 -5 149 -31 277 -116 40 -26 159 -102 265 -168 106 -67 343 -217 527
-333 183 -116 337 -211 341 -211 3 0 24 35 46 78 22 42 77 150 123 239 45 90
81 167 79 173 -1 5 -55 42 -119 82 -64 40 -214 135 -335 211 -120 76 -334 210
-474 299 -303 191 -382 232 -505 263 -275 70 -549 24 -791 -133 -27 -18 -84
-54 -127 -80 -79 -48 -522 -326 -792 -496 -82 -52 -228 -143 -323 -203 -95
-59 -184 -115 -197 -123 -66 -42 -169 -106 -184 -115 -18 -10 -105 -66 -226
-143 -137 -88 -259 -227 -314 -357 -77 -184 -69 -403 21 -553 66 -109 204
-207 353 -249 52 -14 137 -17 610 -22 549 -6 550 -6 610 -30 120 -48 196 -119
251 -235 68 -144 67 -128 74 -1171 l7 -940 26 -100 c43 -167 84 -241 184 -336
123 -116 260 -165 442 -156 210 10 360 101 484 294 47 73 100 173 357 678 207
407 314 617 762 1495 64 124 173 338 243 475 70 138 167 327 215 420 89 172
271 530 485 950 64 127 120 234 125 239 4 4 106 -46 226 -113 120 -67 221
-118 225 -114 3 5 3 44 -2 88 -22 226 -52 539 -74 780 -14 149 -27 284 -30
300 -3 17 -9 86 -15 155 -12 153 -19 190 -34 190 -6 0 -38 -17 -71 -37z"/>
<path d="M5486 6288 c-18 -35 -75 -144 -124 -243 -75 -148 -89 -183 -79 -196
7 -9 26 -35 44 -59 36 -48 70 -130 84 -206 6 -31 8 -548 7 -1310 l-3 -1259
-23 -54 c-37 -87 -51 -111 -95 -158 -58 -63 -121 -105 -462 -310 -165 -99
-394 -238 -510 -308 -115 -71 -256 -156 -312 -189 -57 -34 -184 -110 -283
-171 -99 -60 -189 -114 -198 -120 -45 -26 -171 -102 -202 -123 -19 -13 -71
-41 -115 -63 -141 -70 -283 -65 -433 13 -42 22 -81 44 -87 48 -5 4 -138 85
-295 180 -157 95 -383 231 -502 304 -120 72 -225 136 -235 141 -10 6 -54 32
-98 59 -44 27 -138 84 -210 126 -340 202 -545 329 -587 363 -59 49 -112 126
-146 213 l-27 69 -5 1034 c-4 905 -7 1035 -20 1042 -8 4 -58 28 -111 52 -125
58 -227 127 -332 226 -46 45 -87 81 -91 81 -3 0 -6 -544 -6 -1209 0 -1166 1
-1214 20 -1313 22 -113 47 -194 87 -272 50 -100 133 -213 212 -289 92 -88 161
-134 556 -371 154 -92 377 -227 495 -298 118 -72 229 -138 245 -148 17 -10
170 -102 340 -205 586 -355 656 -391 840 -431 151 -33 350 -19 510 36 73 25
173 75 285 143 52 32 214 130 360 218 146 89 364 221 485 294 121 73 303 183
405 245 102 62 257 155 345 208 358 213 478 309 582 465 99 148 152 287 173
457 14 114 14 2501 0 2624 -24 205 -112 424 -217 536 -18 19 -33 38 -33 41 0
15 -174 149 -194 149 -3 0 -21 -28 -40 -62z"/>
</g>
</svg>
